<svg width="264" height="273" viewBox="0 0 264 273" fill="none" xmlns="http://www.w3.org/2000/svg">
<rect width="264" height="273" fill="white"/>
<path d="M22.0387 121.267C22.6977 109.224 26.8917 97.6763 34.0613 88.1626C43.956 74.8129 59.4422 67.7477 75.2453 65.5582C98.2291 62.386 118.462 67.9825 139.92 55.015C146.541 51.0183 152.544 45.9896 159.24 42.1348C178.997 30.7617 201.221 39.181 214.843 56.5711C243.265 92.8419 242.157 148.299 228.74 190.532C222.732 209.495 209.088 224.837 191.664 233.431C152.286 252.869 99.6442 232.656 67.151 207.349C42.9211 188.474 20.1432 154.087 22.0387 121.267Z" fill="#20A4F3"/>
<path opacity="0.7" d="M22.0387 121.267C22.6977 109.224 26.8917 97.6763 34.0613 88.1626C43.956 74.8129 59.4422 67.7477 75.2453 65.5582C98.2291 62.386 118.462 67.9825 139.92 55.015C146.541 51.0183 152.544 45.9896 159.24 42.1348C178.997 30.7617 201.221 39.181 214.843 56.5711C243.265 92.8419 242.157 148.299 228.74 190.532C222.732 209.495 209.088 224.837 191.664 233.431C152.286 252.869 99.6442 232.656 67.151 207.349C42.9211 188.474 20.1432 154.087 22.0387 121.267Z" fill="white"/>
<path d="M39.204 154.829C39.204 154.829 43.2538 152.7 44.5157 152.864C45.7776 153.027 42.277 154.502 44.5157 154.502C46.7544 154.502 47.5886 153.683 47.5886 154.174C47.5886 154.665 47.747 155.075 48.8558 154.829C49.9646 154.584 50.2392 154.895 50.7989 154.9C51.783 154.871 52.7592 154.71 53.7029 154.42C54.7114 154.092 55.8149 153.683 56.5277 154.256C57.2405 154.829 56.9448 155.14 59.4581 154.9C60.9012 154.753 62.356 154.781 63.793 154.982" stroke="#263238" stroke-linecap="round" stroke-linejoin="round"/>
<path d="M39.1037 164.526C41.0731 164.133 45.4397 161.922 44.1672 162.167C42.8947 162.413 40.5134 163.887 43.6022 163.969C46.691 164.051 47.3986 162.905 48.2434 162.577C49.0882 162.249 52.0397 162.577 52.4674 162.577C52.895 162.577 50.0755 163.194 52.4674 163.336C54.8592 163.478 55.1074 163.03 56.0261 163.336C56.8473 163.502 57.6918 163.502 58.513 163.336C58.513 163.336 58.9512 163.805 61.1899 163.882C63.4286 163.958 65.1182 163.882 65.1182 163.882" stroke="#263238" stroke-linecap="round" stroke-linejoin="round"/>
<path d="M37.5619 159.399C37.5619 159.399 43.465 159.121 44.5896 158.793C45.7142 158.466 45.1493 157.647 46.7016 157.974C48.2539 158.302 49.2307 157.657 50.5666 157.898C51.9024 158.138 55.3766 157.898 53.8718 157.319C52.367 156.74 49.5317 158.711 52.7578 158.793C55.9838 158.875 57.3883 158.553 57.6682 158.307C57.948 158.062 59.6429 158.793 59.6429 158.793C59.6429 158.793 61.4645 158.143 62.2829 158.307C63.1013 158.471 66.6442 158.853 66.6442 158.853" stroke="#263238" stroke-linecap="round" stroke-linejoin="round"/>
<path d="M187.524 107.218C187.524 107.218 191.88 104.93 193.232 105.105C194.584 105.28 190.83 106.863 193.232 106.863C195.635 106.863 196.532 105.984 196.532 106.514C196.532 107.043 196.706 107.48 197.894 107.218C199.082 106.956 199.383 107.289 200.006 107.294C201.062 107.264 202.11 107.089 203.122 106.776C204.209 106.426 205.408 105.984 206.163 106.601C206.918 107.218 206.612 107.551 209.331 107.294C210.88 107.138 212.44 107.167 213.983 107.382" stroke="#263238" stroke-linecap="round" stroke-linejoin="round"/>
<path d="M188.2 129.828C188.2 129.828 192.556 127.54 193.908 127.72C195.26 127.9 191.506 129.478 193.908 129.478C196.31 129.478 197.208 128.599 197.208 129.129C197.208 129.659 197.382 130.095 198.57 129.828C199.758 129.56 200.059 129.899 200.682 129.91C201.739 129.868 202.786 129.684 203.797 129.364C204.885 129.009 206.084 128.572 206.839 129.189C207.594 129.806 207.288 130.139 210.007 129.882C211.555 129.722 213.117 129.752 214.658 129.97" stroke="#263238" stroke-linecap="round" stroke-linejoin="round"/>
<path d="M187.524 112.4C190.011 112.006 195.518 109.784 193.919 110.03C192.319 110.276 189.304 111.761 193.211 111.843C197.118 111.925 198.005 110.751 199.072 110.445C200.138 110.139 203.866 110.445 204.399 110.445C204.933 110.445 201.379 111.067 204.399 111.209C207.42 111.351 207.71 110.903 208.893 111.209C209.934 111.375 210.993 111.375 212.034 111.209C212.034 111.209 212.589 111.679 215.419 111.755C218.249 111.832 220.382 111.755 220.382 111.755" stroke="#263238" stroke-linecap="round" stroke-linejoin="round"/>
<path d="M188.095 140.251C190.207 139.831 194.89 137.455 193.533 137.718C192.176 137.98 189.605 139.568 192.926 139.656C196.247 139.743 197.007 138.509 197.916 138.16C198.824 137.81 201.992 138.16 202.446 138.16C202.9 138.16 199.88 138.826 202.446 138.973C205.012 139.121 205.265 138.646 206.274 138.973C207.154 139.151 208.06 139.151 208.94 138.973C208.94 138.973 209.415 139.476 211.823 139.568C214.231 139.661 216.047 139.568 216.047 139.568" stroke="#263238" stroke-linecap="round" stroke-linejoin="round"/>
<path d="M187.524 125.979C189.636 125.558 194.283 123.183 192.931 123.445C191.58 123.707 189.024 125.291 192.329 125.378C195.635 125.465 196.384 124.237 197.282 123.882C198.18 123.527 201.337 123.882 201.786 123.882C202.235 123.882 199.236 124.548 201.786 124.701C204.336 124.854 204.584 124.373 205.587 124.701C206.459 124.877 207.356 124.877 208.227 124.701C208.227 124.701 208.697 125.203 211.089 125.291C213.481 125.378 215.281 125.291 215.281 125.291" stroke="#263238" stroke-linecap="round" stroke-linejoin="round"/>
<path d="M186.775 117.068C188.85 116.522 189.267 114.884 190.65 115.386C192.034 115.888 193.697 115.605 194.114 115.288C194.835 114.843 195.636 114.555 196.469 114.442C196.997 114.442 196.469 115.075 196.469 115.757C196.469 116.44 198.269 116.02 198.681 115.757C199.093 115.495 199.79 115.179 200.265 115.757L200.751 116.331C200.751 116.331 201.717 116.331 201.997 115.757C202.206 115.278 202.567 114.886 203.02 114.647C203.473 114.408 203.991 114.336 204.489 114.442C205.872 114.758 204.072 115.119 205.017 115.725C205.962 116.331 206.263 114.442 207.235 115.282C208.206 116.123 207.235 116.544 208.064 116.544C208.893 116.544 213.238 115.817 215.266 116.331" stroke="#263238" stroke-linecap="round" stroke-linejoin="round"/>
<path d="M187.524 121.507C187.524 121.507 193.829 121.207 195.033 120.857C196.236 120.508 195.629 119.623 197.282 119.978C198.935 120.333 199.985 119.634 201.411 119.896C202.836 120.158 206.543 119.896 204.938 119.274C203.333 118.651 200.307 120.77 203.75 120.857C207.192 120.944 208.692 120.6 208.993 120.311C209.294 120.022 211.105 120.857 211.105 120.857C211.105 120.857 213.043 120.158 213.946 120.311C214.848 120.464 218.597 120.923 218.597 120.923" stroke="#263238" stroke-linecap="round" stroke-linejoin="round"/>
<path d="M186.432 134.742C186.432 134.742 192.768 134.442 193.987 134.092C195.207 133.743 194.589 132.858 196.252 133.213C197.916 133.568 198.972 132.875 200.408 133.131C201.844 133.388 205.572 133.131 203.956 132.509C202.34 131.886 199.294 134.005 202.757 134.092C206.221 134.179 207.731 133.836 208.037 133.546C208.344 133.257 210.149 134.092 210.149 134.092C210.149 134.092 212.103 133.393 213.011 133.546C213.919 133.699 217.694 134.158 217.694 134.158" stroke="#263238" stroke-linecap="round" stroke-linejoin="round"/>
<path d="M58.2648 85.4927C60.3398 85.0777 61.6282 83.0739 63.888 83.4069L64.2101 83.7455L63.2438 84.7447C64.5322 85.7438 65.8258 84.7447 67.1141 84.7447C67.4362 84.7447 67.4362 85.4108 67.7582 85.4108C70.6622 85.7438 73.5662 85.0777 76.4702 84.7447C77.0432 85.2522 77.7371 85.5918 78.48 85.7281C79.2228 85.8645 79.9874 85.7926 80.6942 85.52" stroke="#263238" stroke-linecap="round" stroke-linejoin="round"/>
<path d="M58.1592 95.9158C60.3398 95.752 61.9502 94.4198 63.888 93.4206C62.9218 94.0867 61.9502 93.4206 61.3061 94.7528C63.2438 96.0851 65.8258 94.7528 67.7582 94.0867C69.3739 93.4206 70.9843 93.7537 72.5578 93.8301M72.5578 93.8301C71.1427 93.7154 71.9558 94.114 72.5578 93.8301ZM72.5578 93.8301C71.9558 94.114 70.8365 94.4307 72.1776 94.6109C73.5187 94.791 75.0658 94.2068 76.333 94.6382" stroke="#263238" stroke-linecap="round" stroke-linejoin="round"/>
<path d="M57.589 81.6379C59.701 81.2175 64.3421 78.8424 62.9904 79.1045C61.6387 79.3665 59.0885 80.9554 62.3938 81.0428C65.699 81.1301 66.4435 79.8962 67.3464 79.5467C68.2493 79.1973 71.3962 79.5467 71.8502 79.5467C72.3043 79.5467 69.2947 80.2128 71.8502 80.3657C74.4058 80.5186 74.6486 80.0381 75.6518 80.3657C76.5238 80.5394 77.4199 80.5394 78.2918 80.3657C78.2918 80.3657 78.7618 80.868 81.1536 80.9554C83.5454 81.0428 91.4021 81.425 91.4021 81.425" stroke="#263238" stroke-linecap="round" stroke-linejoin="round"/>
<path d="M57.589 77.1716C57.589 77.1716 63.8933 76.8713 65.0918 76.5164C66.2904 76.1615 65.6938 75.2879 67.3464 75.6374C68.999 75.9868 70.0498 75.2988 71.4754 75.5555C72.901 75.8121 76.6075 75.5555 75.0024 74.933C73.3973 74.3106 70.3666 76.4291 73.8091 76.5164C77.2517 76.6038 78.7565 76.2598 79.0522 75.9704C79.3478 75.681 81.1642 76.5164 81.1642 76.5164C81.1642 76.5164 83.1072 75.823 84.0101 75.9704C84.913 76.1178 88.6618 76.5819 88.6618 76.5819" stroke="#263238" stroke-linecap="round" stroke-linejoin="round"/>
<path d="M56.496 90.4067C56.496 90.4067 62.832 90.1064 64.0464 89.7515C65.2608 89.3966 64.6536 88.523 66.3168 88.8724C67.98 89.2219 69.036 88.5339 70.4669 88.7905C71.8978 89.0471 75.636 88.7905 74.0203 88.1681C72.4046 87.5456 69.3581 89.6641 72.8218 89.7515C76.2854 89.8388 77.7955 89.4949 78.1018 89.2055C78.408 88.9161 80.2138 89.7515 80.2138 89.7515C80.2138 89.7515 82.1674 89.0581 83.0702 89.2055C83.9731 89.3529 87.7536 89.8225 87.7536 89.8225" stroke="#263238" stroke-linecap="round" stroke-linejoin="round"/>
<path d="M54.8117 113.945C58.1592 112.531 60.4402 114.529 61.5014 115.85C62.3251 114.354 64.2259 111.968 67.7688 112.744C71.6074 113.59 73.3339 118.389 70.5778 123.178C68.5925 126.623 65.1394 129.184 63.3547 130.325C63.1435 130.467 62.9482 130.587 62.7898 130.68C62.6208 130.614 62.4043 130.538 62.172 130.439C60.2237 129.631 56.364 127.759 53.8402 124.734C50.3026 120.529 51.179 115.484 54.8117 113.945Z" stroke="#263238" stroke-linecap="round" stroke-linejoin="round"/>
<path d="M70.8946 133.628C71.4684 133.536 72.0556 133.648 72.56 133.945C73.0645 134.243 73.4565 134.708 73.6718 135.266C74.044 134.805 74.5566 134.489 75.1255 134.369C75.6944 134.249 76.2859 134.332 76.8029 134.605C78.4291 135.43 78.672 137.778 76.9243 139.59C75.7749 140.67 74.4079 141.472 72.9221 141.938L72.6317 142.031L72.3782 141.851C71.1078 140.93 70.051 139.729 69.2842 138.335C68.1595 136.041 69.1046 133.89 70.8946 133.628Z" stroke="#263238" stroke-linecap="round" stroke-linejoin="round"/>
<path d="M209.848 160.994C209.59 162.701 209.773 164.449 210.376 166.06C210.661 166.846 211.044 167.59 211.517 168.272C212.814 170.166 214.708 171.534 216.874 172.142C219.04 172.75 221.343 172.56 223.388 171.604C225.433 170.648 227.093 168.986 228.083 166.903C229.073 164.821 229.331 162.446 228.813 160.188C228.296 157.93 227.034 155.928 225.246 154.526C223.457 153.125 221.252 152.41 219.01 152.505C216.767 152.6 214.627 153.5 212.955 155.048C211.284 156.597 210.185 158.699 209.848 160.994Z" stroke="#263238" stroke-linecap="round" stroke-linejoin="round"/>
<path d="M214.833 166.339C214.833 166.339 216.992 164.073 219.585 164.482C220.35 164.61 221.075 164.923 221.699 165.398C222.324 165.873 222.83 166.495 223.175 167.212" stroke="#263238" stroke-linecap="round" stroke-linejoin="round"/>
<path d="M222.394 158.433C222.691 159 223.116 159.484 223.633 159.846C224.149 160.208 224.742 160.437 225.361 160.513" stroke="#263238" stroke-linecap="round" stroke-linejoin="round"/>
<path d="M224.12 160.884C224.095 161.054 224.022 161.213 223.91 161.339C223.798 161.466 223.652 161.556 223.491 161.597C223.33 161.638 223.16 161.629 223.004 161.57C222.848 161.512 222.712 161.407 222.614 161.268C222.515 161.13 222.459 160.964 222.451 160.793C222.444 160.621 222.486 160.451 222.572 160.304C222.658 160.157 222.785 160.04 222.935 159.967C223.086 159.895 223.254 159.87 223.418 159.896C223.638 159.931 223.835 160.055 223.967 160.24C224.098 160.425 224.154 160.657 224.12 160.884Z" stroke="#263238" stroke-linecap="round" stroke-linejoin="round"/>
<path d="M224.067 161.261C224.067 161.261 224.891 161.48 224.495 162.44C224.099 163.401 225.731 163.62 225.968 163.953C226.206 164.286 225.408 165.536 226.296 165.929C227.183 166.323 227.114 167.125 226.855 167.769C226.792 168.082 226.847 168.409 227.008 168.681" stroke="#263238" stroke-linecap="round" stroke-linejoin="round"/>
<path d="M223.164 161.616C223.164 162.49 222.879 163.041 224.083 163.876C225.287 164.712 224.083 165.673 224.321 166.175C224.558 166.677 225.905 166.41 225.092 167.955C224.92 168.353 224.848 168.788 224.881 169.222C224.914 169.656 225.052 170.075 225.282 170.439" stroke="#263238" stroke-linecap="round" stroke-linejoin="round"/>
<path d="M217.731 157.701C217.283 158.149 216.738 158.48 216.141 158.665C215.543 158.85 214.912 158.885 214.299 158.766" stroke="#263238" stroke-linecap="round" stroke-linejoin="round"/>
<path d="M215.376 159.508C215.351 159.678 215.375 159.852 215.445 160.008C215.516 160.163 215.629 160.294 215.771 160.383C215.913 160.472 216.077 160.515 216.243 160.508C216.409 160.5 216.569 160.442 216.703 160.34C216.837 160.238 216.939 160.098 216.995 159.936C217.052 159.775 217.061 159.6 217.021 159.433C216.982 159.266 216.895 159.115 216.772 158.999C216.65 158.884 216.496 158.808 216.332 158.782C216.223 158.764 216.112 158.769 216.005 158.796C215.898 158.823 215.797 158.872 215.708 158.939C215.619 159.007 215.544 159.092 215.487 159.19C215.43 159.287 215.393 159.396 215.376 159.508Z" stroke="#263238" stroke-linecap="round" stroke-linejoin="round"/>
<path d="M210.376 166.06C210.607 165.85 210.752 165.558 210.783 165.241C210.72 164.543 210.878 163.756 211.839 163.653C212.8 163.549 212.399 162.113 212.721 161.867C213.043 161.621 214.658 161.916 214.563 160.873C214.468 159.831 215.318 159.885 215.318 159.885" stroke="#263238" stroke-linecap="round" stroke-linejoin="round"/>
<path d="M211.517 168.272C211.841 167.994 212.093 167.636 212.25 167.232C212.406 166.828 212.463 166.389 212.414 165.957C212.092 164.237 213.312 164.908 213.666 164.499C214.02 164.089 213.169 162.795 214.553 162.375C215.936 161.955 215.825 161.332 216.079 160.502" stroke="#263238" stroke-linecap="round" stroke-linejoin="round"/>
<path d="M165.697 88.998C166.501 91.3257 167.879 93.396 169.694 95.004C170.571 95.797 171.543 96.4688 172.587 97.0024C175.476 98.486 178.773 98.8839 181.914 98.1276C185.055 97.3714 187.844 95.5082 189.801 92.8579C191.759 90.2075 192.763 86.9352 192.642 83.6027C192.521 80.2701 191.282 77.085 189.137 74.5941C186.993 72.1031 184.077 70.4616 180.89 69.9512C177.703 69.4409 174.444 70.0935 171.671 71.7972C168.899 73.5008 166.786 76.1492 165.696 79.2878C164.606 82.4264 164.606 85.8595 165.697 88.998Z" stroke="#263238" stroke-linecap="round" stroke-linejoin="round"/>
<path d="M186.87 80.4422C186.87 80.4422 185.523 83.063 179.663 84.9412C176.642 85.9407 173.476 86.3896 170.306 86.268C170.306 86.268 172.73 96.3308 182.086 93.7973C191.442 91.2639 186.87 80.4422 186.87 80.4422Z" stroke="#263238" stroke-linecap="round" stroke-linejoin="round"/>
<path d="M179.9 76.9369C179.9 76.9369 179.8 72.7654 183.469 76.2817" stroke="#263238" stroke-linecap="round" stroke-linejoin="round"/>
<path d="M173.522 79.2792C173.522 79.2792 171.199 77.0461 170.951 80.8735" stroke="#263238" stroke-linecap="round" stroke-linejoin="round"/>
<path d="M181.157 89.7515C181.157 89.7515 183.364 87.1143 184.958 87.4091C186.553 87.704 186.215 90.8544 181.722 92.5033C177.228 94.1522 175.328 91.9955 175.439 90.3193C175.549 88.6431 181.157 89.7515 181.157 89.7515Z" stroke="#263238" stroke-linecap="round" stroke-linejoin="round"/>
<path d="M184.335 75.965C184.335 75.965 188.633 74.7092 187.968 76.7567C187.303 78.8042 184.335 75.965 184.335 75.965Z" stroke="#263238" stroke-linecap="round" stroke-linejoin="round"/>
<path d="M170.122 81.1793C170.122 81.1793 166.489 82.0201 167.365 83.4888C168.242 84.9576 170.122 81.1793 170.122 81.1793Z" stroke="#263238" stroke-linecap="round" stroke-linejoin="round"/>
<path d="M136.303 65.3944C137.035 62.6107 137.042 59.6765 136.325 56.8888C135.608 54.1012 134.191 51.5588 132.219 49.5188C130.246 47.4789 127.788 46.0137 125.093 45.2715C122.397 44.5294 119.559 44.5365 116.867 45.2923C114.175 46.048 111.724 47.5256 109.761 49.5755C107.798 51.6253 106.394 54.1749 105.69 56.9661C104.986 59.7574 105.007 62.6915 105.752 65.4715C106.496 68.2515 107.937 70.779 109.93 72.7982L109.898 74.9822L123.837 78.8915L124.893 77.0133C127.622 76.2995 130.117 74.8468 132.123 72.8047C134.128 70.7626 135.571 68.2047 136.303 65.3944Z" stroke="#263238" stroke-linecap="round" stroke-linejoin="round"/>
<path d="M117.686 91.182L109.185 88.796C108.643 88.644 108.175 88.2886 107.872 87.799C107.569 87.3093 107.454 86.7207 107.548 86.1479L109.402 74.802L124.339 78.9898L120.384 89.7679C120.183 90.3067 119.796 90.7494 119.297 91.0106C118.799 91.2717 118.225 91.3328 117.686 91.182Z" stroke="#263238" stroke-linecap="round" stroke-linejoin="round"/>
<path d="M117.792 91.4441C117.39 92.9838 115.088 93.6772 112.654 92.9947C110.22 92.3122 108.567 90.505 108.958 88.9652" stroke="#263238" stroke-linecap="round" stroke-linejoin="round"/>
<path d="M112.548 62.8228L116.097 63.8165L119.566 59.6232L119.713 69.5932L124.571 62.1075L124.972 66.0988L127.533 66.8195" stroke="#263238" stroke-linecap="round" stroke-linejoin="round"/>
<path d="M128.014 39.1373L132.887 29.2711" stroke="#263238" stroke-linecap="round" stroke-linejoin="round"/>
<path d="M142.021 49.4075L149.799 46.6448" stroke="#263238" stroke-linecap="round" stroke-linejoin="round"/>
<path d="M141.742 68.0644L148.97 69.1946" stroke="#263238" stroke-linecap="round" stroke-linejoin="round"/>
<path d="M110.077 42.1512L106.154 30.4067" stroke="#263238" stroke-linecap="round" stroke-linejoin="round"/>
<path d="M99.6653 61.4796L94.2744 60.6388" stroke="#263238" stroke-linecap="round" stroke-linejoin="round"/>
<path d="M125.384 105.323C125.384 105.323 127.538 87.5565 139.503 91.515C151.467 95.4735 154.488 109.473 152.618 122.091C150.749 134.709 152.867 137.046 152.867 137.046C152.867 137.046 149.419 132.94 150.633 123.942C150.633 123.942 148.796 134.048 150.464 138.078C150.464 138.078 149.593 140.104 147.011 139.47C147.011 139.47 142.66 128.818 142.692 118.93C142.724 109.042 125.384 105.323 125.384 105.323Z" fill="#263238"/>
<g opacity="0.2">
<path d="M130.379 100.644C130.379 100.644 132.143 92.3231 139.255 92.8637" stroke="white" stroke-linecap="round" stroke-linejoin="round"/>
<path d="M135.538 103.702C135.538 103.702 137.739 98.1981 141.842 98.4984C145.944 98.7987 150.195 106.787 149.846 113.432C149.498 120.076 146.409 129.664 149.208 137.019" stroke="white" stroke-linecap="round" stroke-linejoin="round"/>
<path d="M138.579 107.016C138.579 107.016 143.6 105.515 144.915 110.358C146.23 115.201 144.915 126.131 144.915 126.131" stroke="white" stroke-linecap="round" stroke-linejoin="round"/>
</g>
<path d="M124.223 103.876C124.223 103.876 124.645 101.501 128.299 102.238C131.952 102.976 139.017 106.557 135.538 109.686C132.058 112.815 124.223 103.876 124.223 103.876Z" fill="#20A4F3" stroke="#263238" stroke-linecap="round" stroke-linejoin="round"/>
<path d="M76.4016 199.765C84.9288 204.488 93.8678 199.618 93.8678 199.618C100.89 204.488 104.496 203.614 104.496 203.614L122.148 233.835L199.283 232.268C199.283 232.268 200.091 211.176 199.283 204.215C195.085 168.13 177.804 160.797 159.683 156.167C141.562 151.537 122.876 152.285 107.992 156.391C87.7166 161.976 76.4069 173.235 76.4069 173.235C76.4069 173.235 65.8997 175.419 63.5765 181.698C63.5712 181.709 71.6232 197.106 76.4016 199.765Z" fill="#20A4F3"/>
<mask id="mask0_2_8" style="mask-type:luminance" maskUnits="userSpaceOnUse" x="63" y="152" width="137" height="82">
<path d="M76.4016 199.765C84.9288 204.488 93.8678 199.618 93.8678 199.618C100.89 204.488 104.496 203.614 104.496 203.614L122.148 233.835L199.283 232.268C199.283 232.268 200.091 211.176 199.283 204.215C195.085 168.13 177.804 160.797 159.683 156.167C141.562 151.537 122.876 152.285 107.992 156.391C87.7166 161.976 76.4069 173.235 76.4069 173.235C76.4069 173.235 65.8997 175.419 63.5765 181.698C63.5712 181.709 71.6232 197.106 76.4016 199.765Z" fill="white"/>
</mask>
<g mask="url(#mask0_2_8)">
<path opacity="0.3" d="M185.634 216.762L107.39 208.572L104.496 203.614C104.496 203.614 100.89 204.488 93.8678 199.618C93.8678 199.618 87.8592 202.894 80.9952 201.469C91.1962 190.281 82.896 179.634 82.896 179.634C83.9984 180.004 85.0056 180.626 85.8423 181.456C86.6789 182.285 87.3233 183.299 87.7272 184.422C87.7272 184.422 87.648 178.831 89.1264 179.634C90.6048 180.437 95.1931 189.26 95.1931 189.26C92.891 168.13 100.89 165.684 100.89 165.684C95.9376 180.83 107.934 202.353 126.313 207.032C144.693 211.711 168.3 209.358 168.3 209.358C166.188 206.628 166.779 201.408 166.779 201.408C168.569 203.592 175.402 207.032 175.402 207.032C172.682 200.054 178.116 194.644 178.116 194.644L185.634 216.762Z" fill="black" fill-opacity="0.7"/>
<path opacity="0.3" d="M161.531 173.246C148.711 187.988 130.675 178.16 130.675 178.16C117.696 182.91 112.992 169.391 112.876 168.168C112.263 161.807 115.13 157.248 119.55 154.037C132.94 152.171 146.551 152.912 159.678 156.221C160.971 156.549 162.26 156.893 163.537 157.264C166.093 161.763 166.684 167.332 161.531 173.246Z" fill="black" fill-opacity="0.7"/>
</g>
<path d="M76.4016 199.765C84.9288 204.488 93.8678 199.618 93.8678 199.618C100.89 204.488 104.496 203.614 104.496 203.614L122.148 233.835L199.283 232.268C199.283 232.268 200.091 211.176 199.283 204.215C195.085 168.13 177.804 160.797 159.683 156.167C141.562 151.537 122.876 152.285 107.992 156.391C87.7166 161.976 76.4069 173.235 76.4069 173.235C76.4069 173.235 65.8997 175.419 63.5765 181.698C63.5712 181.709 71.6232 197.106 76.4016 199.765Z" stroke="#263238" stroke-linecap="round" stroke-linejoin="round"/>
<path d="M124.909 179.841C124.909 179.841 117.792 177.799 121.709 165.847C125.627 153.896 129.481 145.782 140.976 145.957C152.471 146.131 160.734 156.298 161.452 160.284C162.17 164.27 157.048 178.105 146.436 182.402" fill="#20A4F3"/>
<path d="M124.909 179.841C124.909 179.841 117.792 177.799 121.709 165.847C125.627 153.896 129.481 145.782 140.976 145.957C152.471 146.131 160.734 156.298 161.452 160.284C162.17 164.27 157.048 178.105 146.436 182.402" stroke="#263238" stroke-linecap="round" stroke-linejoin="round"/>
<path d="M100.89 193.055C100.89 193.055 96.7032 178.913 99.8712 171.69" stroke="#263238" stroke-linecap="round" stroke-linejoin="round"/>
<g opacity="0.4">
<path d="M131.118 194.005C131.205 198.144 131.766 202.259 132.787 206.262" stroke="#263238" stroke-linecap="round" stroke-linejoin="round"/>
<path d="M131.609 188.261C131.393 189.239 131.255 190.235 131.197 191.236" stroke="#263238" stroke-linecap="round" stroke-linejoin="round"/>
<path d="M142.127 206.503C142.317 207.098 142.528 207.693 142.761 208.277" stroke="#263238" stroke-linecap="round" stroke-linejoin="round"/>
<path d="M138.579 189.282C139.92 194.376 139.92 199.836 141.541 204.499" stroke="#263238" stroke-linecap="round" stroke-linejoin="round"/>
<path d="M147.064 188.261C147.064 188.261 153.606 202.855 154.72 209.598" stroke="#263238" stroke-linecap="round" stroke-linejoin="round"/>
<path d="M157.872 189.975C160.781 196.598 163.453 203.467 164.984 210.581" stroke="#263238" stroke-linecap="round" stroke-linejoin="round"/>
<path d="M155.417 184.663C155.945 185.755 156.473 186.847 156.969 187.939" stroke="#263238" stroke-linecap="round" stroke-linejoin="round"/>
<path d="M125.384 185.815C123.491 192.334 122.619 199.125 122.802 205.929" stroke="#263238" stroke-linecap="round" stroke-linejoin="round"/>
<path d="M115.31 187.349C113.626 192.585 112.922 198.105 113.235 203.614" stroke="#263238" stroke-linecap="round" stroke-linejoin="round"/>
<path d="M118.679 180.486C117.687 181.859 116.862 183.354 116.223 184.936" stroke="#263238" stroke-linecap="round" stroke-linejoin="round"/>
<path d="M111.551 173.284C111.551 173.284 104.496 181.638 103.631 191.428" stroke="#263238" stroke-linecap="round" stroke-linejoin="round"/>
<path d="M168.59 188.485C169.081 189.439 169.519 190.421 169.9 191.428" stroke="#263238" stroke-linecap="round" stroke-linejoin="round"/>
<path d="M158.088 175.408C161.795 178.527 164.97 182.266 167.482 186.47" stroke="#263238" stroke-linecap="round" stroke-linejoin="round"/>
<path d="M162.936 167.89C162.936 167.89 170.856 169.255 174.356 174.005" stroke="#263238" stroke-linecap="round" stroke-linejoin="round"/>
<path d="M162.936 160.284C162.936 160.284 168.691 159.607 173.448 161.987" stroke="#263238" stroke-linecap="round" stroke-linejoin="round"/>
<path d="M107.332 166.295C108.251 166.013 109.203 165.862 110.162 165.847" stroke="#263238" stroke-linecap="round" stroke-linejoin="round"/>
<path d="M102.12 168.823C103.113 168.141 104.162 167.552 105.257 167.065" stroke="#263238" stroke-linecap="round" stroke-linejoin="round"/>
<path d="M100.172 165.706C96.793 165.367 84.9288 174.518 84.9288 174.518C83.8809 174.406 82.8222 174.548 81.8363 174.932C80.8504 175.315 79.9642 175.931 79.2475 176.729" stroke="#263238" stroke-linecap="round" stroke-linejoin="round"/>
<path d="M96.9302 181.463L93.0336 183.8C93.0336 183.8 90.9216 187.458 87.7114 187.349" stroke="#263238" stroke-linecap="round" stroke-linejoin="round"/>
<path d="M98.736 194.665C98.736 194.665 96.9514 195.79 95.568 195.479C95.568 195.479 89.4696 199.923 86.064 198.34" stroke="#263238" stroke-linecap="round" stroke-linejoin="round"/>
</g>
<g opacity="0.4">
<path d="M131.609 177.75C131.609 177.75 130.068 179.765 132.787 182.359" stroke="#263238" stroke-linecap="round" stroke-linejoin="round"/>
<path d="M140.765 180.573C140.943 181.151 141.014 181.759 140.975 182.364" stroke="#263238" stroke-linecap="round" stroke-linejoin="round"/>
<path d="M138.5 176.729C139.044 177.342 139.527 178.01 139.941 178.722" stroke="#263238" stroke-linecap="round" stroke-linejoin="round"/>
<path d="M144.931 172.421C144.931 172.421 148.014 173.142 149.208 177.75" stroke="#263238" stroke-linecap="round" stroke-linejoin="round"/>
<path d="M155.232 168.943C155.668 169.803 155.987 170.722 156.177 171.673" stroke="#263238" stroke-linecap="round" stroke-linejoin="round"/>
<path d="M149.846 164.892C151.336 165.125 152.717 165.84 153.791 166.934" stroke="#263238" stroke-linecap="round" stroke-linejoin="round"/>
<path d="M150.892 156.156C150.892 156.156 155.559 153.393 159.34 159.432" stroke="#263238" stroke-linecap="round" stroke-linejoin="round"/>
<path d="M147.069 150.368C147.75 149.446 149.012 149.151 150.068 149.102" stroke="#263238" stroke-linecap="round" stroke-linejoin="round"/>
<path d="M125.384 177.75C125.384 177.75 124.656 175.353 126.44 174.005" stroke="#263238" stroke-linecap="round" stroke-linejoin="round"/>
</g>
<path d="M250.763 224.532V264.259H13.237L13.369 194.665L44.0774 198.531L103.282 205.978L194.515 217.455L241.365 223.347L250.763 224.532Z" fill="white"/>
<path opacity="0.4" d="M237.869 232.694C230.931 241.687 162.629 238.864 159.197 236.516C156.752 234.986 154.095 233.848 151.32 233.142C151.32 233.142 135.136 235.25 132.069 233.437C129.001 231.624 122.596 232.285 122.596 232.285L107.374 238.7L25.6397 227.469L45.1757 220.486C45.1757 220.486 33.1267 219.203 30.793 214.895C28.4592 210.587 44.0827 198.515 44.0827 198.515L103.287 205.962L81.9086 207.868L70.5989 213.224L100.262 219.044L133.526 217.668L194.536 217.439L241.386 223.33C241.433 225.875 240.657 229.074 237.869 232.694Z" fill="#20A4F3"/>
<path d="M13.369 194.665L250.763 224.532" stroke="#263238" stroke-linecap="round" stroke-linejoin="round"/>
<path d="M112.564 236.347L34.9272 225.891L62.8531 213.24L140.496 223.702L112.564 236.347Z" fill="#20A4F3" stroke="#263238" stroke-linecap="round" stroke-linejoin="round"/>
<path d="M98.1394 217.996L76.4016 229.588L39.3307 224.794L37.7467 223.063L39.2938 222.32L61.1054 211.848C67.2781 209.815 73.856 209.478 80.1926 210.871C85.6129 212.14 90.8619 214.092 95.8214 216.686C97.3104 217.477 98.1394 217.996 98.1394 217.996Z" fill="white"/>
<mask id="mask1_2_8" style="mask-type:luminance" maskUnits="userSpaceOnUse" x="37" y="210" width="62" height="20">
<path d="M98.1394 217.996L76.4016 229.588L39.3307 224.794L37.7467 223.063L39.2938 222.32L61.1054 211.848C67.2781 209.815 73.856 209.478 80.1926 210.871C85.6129 212.14 90.8619 214.092 95.8214 216.686C97.3104 217.477 98.1394 217.996 98.1394 217.996Z" fill="white"/>
</mask>
<g mask="url(#mask1_2_8)">
<path opacity="0.3" d="M98.1394 217.996L76.4016 229.588L39.3307 224.794L37.7467 223.063L39.2938 222.32C43.525 221.494 47.8532 221.34 52.1294 221.862C60.8837 223.003 70.9632 226.519 70.9632 226.519C70.9632 226.519 73.6032 228.474 74.844 226.115C76.0848 223.756 81.9984 223.756 84.9499 222.784C87.7906 221.851 92.3419 217.406 95.8426 216.696C97.3104 217.477 98.1394 217.996 98.1394 217.996Z" fill="black" fill-opacity="0.7"/>
</g>
<path d="M98.1394 217.996L76.4016 229.588L39.3307 224.794L37.7467 223.063L39.2938 222.32L61.1054 211.848C67.2781 209.815 73.856 209.478 80.1926 210.871C85.6129 212.14 90.8619 214.092 95.8214 216.686C97.3104 217.477 98.1394 217.996 98.1394 217.996Z" stroke="#263238" stroke-linecap="round" stroke-linejoin="round"/>
<path d="M138.5 220.983L136.958 223.227L113.034 234.512L76.4016 229.598L78.6298 228.408L98.1658 218.007C103.193 216.366 108.439 215.561 113.71 215.621C121.693 215.654 136.646 220.387 138.362 220.939L138.5 220.983Z" fill="white"/>
<mask id="mask2_2_8" style="mask-type:luminance" maskUnits="userSpaceOnUse" x="76" y="215" width="63" height="20">
<path d="M138.5 220.983L136.958 223.227L113.034 234.512L76.4016 229.598L78.6298 228.408L98.1658 218.007C103.193 216.366 108.439 215.561 113.71 215.621C121.693 215.654 136.646 220.387 138.362 220.939L138.5 220.983Z" fill="white"/>
</mask>
<g mask="url(#mask2_2_8)">
<path opacity="0.3" d="M138.5 220.983L136.958 223.227L113.034 234.512L76.4016 229.598L78.6298 228.408C83.3818 227.24 89.9184 226.159 95.1878 227.092C101.082 228.173 106.896 229.682 112.585 231.608C112.585 231.608 132.121 223.014 138.336 220.939L138.5 220.983Z" fill="black" fill-opacity="0.7"/>
</g>
<path d="M138.5 220.983L136.958 223.227L113.034 234.512L76.4016 229.598L78.6298 228.408L98.1658 218.007C103.193 216.366 108.439 215.561 113.71 215.621C121.693 215.654 136.646 220.387 138.362 220.939L138.5 220.983Z" stroke="#263238" stroke-linecap="round" stroke-linejoin="round"/>
<path d="M76.4016 229.588C76.4016 229.588 81.9403 227.283 92.0198 227.005C102.099 226.726 112.585 231.597 112.585 231.597L136.778 221.447" stroke="#263238" stroke-linecap="round" stroke-linejoin="round"/>
<path d="M82.896 228.812C92.9631 228.91 102.974 230.378 112.67 233.18L122.802 228.774" stroke="#263238" stroke-linecap="round" stroke-linejoin="round"/>
<path d="M37.7203 223.063C37.7203 223.063 43.4966 220.475 57.3408 222.419C71.185 224.362 75.7574 228.774 75.7574 228.774" stroke="#263238" stroke-linecap="round" stroke-linejoin="round"/>
<path d="M38.7394 224.16C38.7394 224.16 44.843 222.566 56.1317 224.16C67.4203 225.755 74.411 228.774 74.411 228.774" stroke="#263238" stroke-linecap="round" stroke-linejoin="round"/>
<g opacity="0.4">
<path d="M79.0574 225.46C79.0574 225.46 76.729 225.411 77.0299 224.532C77.3309 223.653 74.749 223.756 73.9517 223.003C73.1544 222.249 72.0034 222.118 71.3803 221.698C70.7573 221.277 72.3202 221.212 70.1237 220.486C67.9272 219.76 67.3728 220.966 65.1816 220.158C62.9904 219.35 66.3907 219.295 63.2333 219.066C60.0758 218.837 61.7074 219.23 58.7611 219.066C55.8149 218.902 56.0261 219.77 55.1918 219.066C54.3576 218.362 46.8494 219.82 46.8494 219.82" stroke="#263238" stroke-linecap="round" stroke-linejoin="round"/>
<path d="M83.424 223.238L81.6605 222.419C81.4282 222.309 81.1642 222.162 81.1325 221.905C81.1061 221.747 81.1694 221.567 81.0902 221.43C81.011 221.294 80.821 221.266 80.6626 221.261L79.0786 221.179C78.9305 220.902 78.7231 220.664 78.4724 220.482C78.2217 220.3 77.9342 220.18 77.6318 220.131C77.0277 220.036 76.4286 219.911 75.8366 219.754C75.4456 219.595 75.0692 219.399 74.712 219.17C72.0847 217.684 69.1421 216.897 66.1478 216.877L66.887 216.331C64.8466 216.07 62.7755 216.302 60.8362 217.008C60.9328 216.916 61.0096 216.805 61.0615 216.681C61.1134 216.557 61.1392 216.422 61.1371 216.287L54.3365 216.92" stroke="#263238" stroke-linecap="round" stroke-linejoin="round"/>
<path d="M87.8803 221.376C87.7401 221.382 87.6001 221.358 87.4692 221.305C87.3384 221.252 87.2196 221.172 87.1203 221.07C87.021 220.967 86.9435 220.844 86.8925 220.709C86.8416 220.573 86.8183 220.429 86.8243 220.284C86.8666 220.154 86.8666 220.014 86.8243 219.885C86.7187 219.694 86.4442 219.743 86.2382 219.689C85.7102 219.547 85.6627 218.728 85.2509 218.329C84.998 218.135 84.6985 218.016 84.385 217.985L80.1134 217.21C79.8291 217.188 79.5573 217.079 79.332 216.898C79.1578 216.729 79.0733 216.478 78.9043 216.298C78.5859 216.047 78.1892 215.927 77.7902 215.959L73.6771 215.801C73.3749 215.812 73.0744 215.748 72.8006 215.615C72.6656 215.546 72.5584 215.43 72.4976 215.287C72.4368 215.145 72.4263 214.984 72.468 214.835C70.8312 214.103 68.999 214.043 67.2197 214.01C65.0162 213.977 62.8126 213.977 60.6091 214.01" stroke="#263238" stroke-linecap="round" stroke-linejoin="round"/>
<path d="M87.648 225.072C89.3008 224.461 91.0284 224.094 92.7802 223.98C92.9582 223.953 93.14 223.974 93.3082 224.04C93.4527 224.138 93.592 224.243 93.7253 224.357C93.967 224.488 94.24 224.545 94.512 224.521L99.037 224.575C99.0686 224.717 99.095 224.859 99.1267 225.001H103.963L104.064 225.443L108.288 225.394C108.405 225.378 108.524 225.403 108.625 225.465C108.736 225.547 108.768 225.695 108.837 225.82C109.08 226.295 109.697 226.366 110.215 226.41C111.551 226.553 112.838 227.009 113.979 227.742" stroke="#263238" stroke-linecap="round" stroke-linejoin="round"/>
<path d="M93.8942 221.922L96.6187 221.217C96.7274 221.173 96.848 221.173 96.9566 221.217C97.0886 221.277 97.1414 221.447 97.2418 221.55C97.326 221.619 97.423 221.668 97.5266 221.695C97.6302 221.722 97.7382 221.727 97.8437 221.709C98.6424 221.68 99.4303 221.508 100.172 221.201C100.488 221.046 100.819 220.925 101.16 220.841C101.766 220.786 102.376 220.866 102.949 221.075C104.067 221.373 105.212 221.547 106.366 221.594C107.115 221.621 107.87 221.594 108.615 221.671C109.418 221.779 110.213 221.951 110.991 222.184L114.122 223.036C116.044 223.582 118.013 224.1 119.64 225.285" stroke="#263238" stroke-linecap="round" stroke-linejoin="round"/>
<path d="M97.907 219.454L100.51 219.295C101.405 218.706 102.429 218.36 103.488 218.291C104.161 218.26 104.836 218.289 105.505 218.378L108.076 218.629C109.429 218.811 110.796 218.857 112.158 218.766C112.158 219.132 112.628 219.246 112.981 219.23L115.141 219.143C115.133 219.301 115.162 219.458 115.227 219.602C115.291 219.746 115.389 219.871 115.511 219.967C115.692 220.094 115.894 220.187 116.107 220.24C117.73 220.732 119.426 220.917 121.113 220.786C121.334 220.744 121.563 220.767 121.773 220.852C121.914 220.952 122.049 221.063 122.174 221.185C122.454 221.364 122.767 221.483 123.093 221.534C124.181 221.798 125.199 222.307 126.076 223.025L125.97 222.304" stroke="#263238" stroke-linecap="round" stroke-linejoin="round"/>
<path d="M131.013 220.89C130.205 221.381 129.339 220.426 128.515 219.972C127.692 219.519 126.757 219.579 125.875 219.497C123.811 219.312 121.868 218.438 119.84 217.969C118.273 217.648 116.684 217.449 115.088 217.373L110.062 217.019" stroke="#263238" stroke-linecap="round" stroke-linejoin="round"/>
</g>
<path d="M86.0165 193.912C83.329 203.565 70.8523 208.053 70.8523 208.053C70.8523 208.053 53.9986 214.676 52.9003 198.373C52.9003 198.373 53.7398 190.407 58.7717 187.453C58.7717 187.453 62.4254 179.951 67.9378 176.74" fill="#20A4F3"/>
<mask id="mask3_2_8" style="mask-type:luminance" maskUnits="userSpaceOnUse" x="52" y="176" width="35" height="34">
<path d="M86.0165 193.912C83.329 203.565 70.8523 208.053 70.8523 208.053C70.8523 208.053 53.9986 214.676 52.9003 198.373C52.9003 198.373 53.7398 190.407 58.7717 187.453C58.7717 187.453 62.4254 179.951 67.9378 176.74" fill="white"/>
</mask>
<g mask="url(#mask3_2_8)">
<path opacity="0.3" d="M82.5633 200.131C77.9222 205.509 70.8522 208.053 70.8522 208.053C70.8522 208.053 54.2519 214.578 52.9214 198.744L54.6004 195.468C54.6004 195.468 55.5983 188.692 60.9364 188.474C66.2745 188.255 70.7414 190.057 71.7182 196.882C72.5102 202.424 70.905 204.291 70.282 204.799C71.338 204.035 75.4986 200.377 72.6897 191.548C73.3771 191.302 74.1269 191.317 74.8044 191.591C75.4818 191.865 76.0425 192.38 76.3857 193.044C77.6793 195.408 75.8102 203.964 75.7468 204.264C78.1125 203.058 80.3906 201.677 82.5633 200.131Z" fill="black" fill-opacity="0.7"/>
</g>
<path d="M86.0165 193.912C83.329 203.565 70.8523 208.053 70.8523 208.053C70.8523 208.053 53.9986 214.676 52.9003 198.373C52.9003 198.373 53.7398 190.407 58.7717 187.453C58.7717 187.453 62.4254 179.951 67.9378 176.74" stroke="#263238" stroke-linecap="round" stroke-linejoin="round"/>
<path d="M77.616 179.634C77.616 179.634 87.2678 183.057 84.4272 194.485" stroke="#263238" stroke-linecap="round" stroke-linejoin="round"/>
<path d="M70.8312 199.257C70.7739 200.614 70.3213 201.922 69.5326 203.008C68.7439 204.095 67.6561 204.909 66.4118 205.345L63.9619 207.054L57.8952 210.505L58.7611 212.623C63.3336 212.623 63.8088 214.01 63.3336 215.479C62.8584 216.948 56.5541 217.663 55.4506 217.925C54.347 218.187 49.1462 216.374 47.7259 215.801C46.3056 215.228 45.8674 212.318 45.8674 212.318L44.88 200.382C45.3273 198.785 46.3173 197.408 47.6678 196.505C47.6678 196.505 48.8981 194.027 50.2392 193.453C51.5803 192.88 55.6354 193.895 55.6354 193.895C55.6354 193.895 59.136 188.37 64.3632 189.413C69.4795 190.439 71.0741 196.292 70.8312 199.257Z" fill="white" stroke="#263238" stroke-linecap="round" stroke-linejoin="round"/>
<path d="M55.6459 193.912C57.02 194.229 58.3756 194.627 59.7062 195.102" stroke="#263238" stroke-linecap="round" stroke-linejoin="round"/>
<path d="M61.6915 214.644L64.5691 217.701L63.5501 213.568L42.9106 175.408L41.052 176.484L61.6915 214.644Z" fill="#20A4F3" stroke="#263238" stroke-linecap="round" stroke-linejoin="round"/>
<path d="M42.3456 179.716L39.6634 174.747C39.6634 174.747 39.8112 174.201 40.7194 173.655C41.152 173.344 41.6794 173.206 42.203 173.268L47.3827 182.839C46.862 182.814 46.3457 182.949 45.899 183.227C45.4844 183.434 45.1576 183.792 44.9803 184.231L48.9456 191.559L48.2592 191.482L42.277 180.393L42.3456 179.716Z" fill="#20A4F3" stroke="#263238" stroke-linecap="round" stroke-linejoin="round"/>
<path d="M50.0122 199.989C50.0122 199.989 53.6395 202.173 54.7642 203.904C54.7642 203.904 60.1234 207.054 60.1234 209.446C60.1234 211.526 58.7822 211.63 58.7822 211.63C58.7822 211.63 60.5986 212.76 60.8942 214.207C61.1899 215.654 60.1075 216.888 59.7907 216.757C59.4739 216.625 48.8347 213.775 46.3162 212.552C43.7976 211.329 42.0499 209.773 44.352 202.681C44.4335 201.894 44.6109 201.122 44.88 200.382C45.276 199.487 47.3246 197.341 47.3246 197.341" fill="white"/>
<path d="M50.0122 199.989C50.0122 199.989 53.6395 202.173 54.7642 203.904C54.7642 203.904 60.1234 207.054 60.1234 209.446C60.1234 211.526 58.7822 211.63 58.7822 211.63C58.7822 211.63 60.5986 212.76 60.8942 214.207C61.1899 215.654 60.1075 216.888 59.7907 216.757C59.4739 216.625 48.8347 213.775 46.3162 212.552C43.7976 211.329 42.0499 209.773 44.352 202.681C44.4335 201.894 44.6109 201.122 44.88 200.382C45.276 199.487 47.3246 197.341 47.3246 197.341" stroke="#263238" stroke-linecap="round" stroke-linejoin="round"/>
<path d="M45.4397 204.488C45.8357 205.776 50.424 206.918 52.1083 208.223C53.7926 209.527 58.7611 211.619 58.7611 211.619" stroke="#263238" stroke-linecap="round" stroke-linejoin="round"/>
<path d="M64.9123 197.357C64.9123 197.357 67.1194 198.225 67.9589 199.962C68.7984 201.698 68.904 204.876 67.9589 205.722C67.0138 206.568 62.6789 210.723 62.0717 211.482C61.4645 212.241 57.9744 209.746 62.0717 204.422C62.0717 204.422 61.9661 201.485 62.7053 200.508" fill="white"/>
<path d="M64.9123 197.357C64.9123 197.357 67.1194 198.225 67.9589 199.962C68.7984 201.698 68.904 204.876 67.9589 205.722C67.0138 206.568 62.6789 210.723 62.0717 211.482C61.4645 212.241 57.9744 209.746 62.0717 204.422C62.0717 204.422 61.9661 201.485 62.7053 200.508" stroke="#263238" stroke-linecap="round" stroke-linejoin="round"/>
<path d="M68.64 187.944C68.64 187.944 73.128 189.036 73.825 195.479C74.5219 201.922 72.5683 205.891 67.9378 208.037" stroke="#263238" stroke-linecap="round" stroke-linejoin="round"/>
<g opacity="0.4">
<path d="M69.9653 181.736C71.111 180.377 72.6053 178.935 74.411 178.722" stroke="#263238" stroke-linecap="round" stroke-linejoin="round"/>
<path d="M66.887 186.47C67.3617 185.537 67.8907 184.634 68.471 183.767" stroke="#263238" stroke-linecap="round" stroke-linejoin="round"/>
<path d="M74.411 192.192C74.411 192.192 81.1958 191.236 83.7038 188.283" stroke="#263238" stroke-linecap="round" stroke-linejoin="round"/>
<path d="M79.9339 200.551C81.1861 199.961 82.2955 199.09 83.1811 198.001" stroke="#263238" stroke-linecap="round" stroke-linejoin="round"/>
<path d="M74.411 202.238C75.5289 202.079 76.6313 201.82 77.7058 201.463" stroke="#263238" stroke-linecap="round" stroke-linejoin="round"/>
</g>
<path d="M176.822 164.177C187.91 164.832 210.155 188.152 215.171 193.912C220.187 199.672 228.371 208.283 231.011 215.097C235.066 225.498 224.928 235.064 214.896 234.512C204.864 233.961 183.982 211.619 183.982 211.619C183.982 211.619 168.052 196.271 172.434 182.402" fill="#20A4F3"/>
<mask id="mask4_2_8" style="mask-type:luminance" maskUnits="userSpaceOnUse" x="171" y="164" width="61" height="71">
<path d="M176.822 164.177C187.91 164.832 210.155 188.152 215.171 193.912C220.187 199.672 228.371 208.283 231.011 215.097C235.066 225.498 224.928 235.064 214.896 234.512C204.864 233.961 183.982 211.619 183.982 211.619C183.982 211.619 168.052 196.271 172.434 182.402" fill="white"/>
</mask>
<g mask="url(#mask4_2_8)">
<path opacity="0.3" d="M205.693 202.686C205.693 202.686 189.093 208.572 181.674 209.118C180.866 208.19 179.916 207.032 178.929 205.689C177.667 202.539 175.449 196.036 178.401 195.473C182.297 194.736 181.484 201.747 183.681 205.105C183.681 205.105 187.44 195.823 192.456 195.867C197.472 195.91 195.36 202.238 195.36 202.238C195.36 202.238 204.024 199.541 205.693 202.686Z" fill="black" fill-opacity="0.7"/>
<path opacity="0.3" d="M214.896 234.512C213.154 234.42 211.084 233.666 208.856 232.487C217.024 231.34 224.833 229.391 227.13 225.236C229.427 221.081 228.186 212.678 225.968 206.672C228.149 209.582 230.002 212.487 231.026 215.124C235.066 225.498 224.928 235.064 214.896 234.512Z" fill="black" fill-opacity="0.7"/>
</g>
<path d="M176.822 164.177C187.91 164.832 210.155 188.152 215.171 193.912C220.187 199.672 228.371 208.283 231.011 215.097C235.066 225.498 224.928 235.064 214.896 234.512C204.864 233.961 183.982 211.619 183.982 211.619C183.982 211.619 168.052 196.271 172.434 182.402" stroke="#263238" stroke-linecap="round" stroke-linejoin="round"/>
<path d="M164.989 199.29C164.989 199.29 170.132 207.262 181.885 209.407" stroke="#263238" stroke-linecap="round" stroke-linejoin="round"/>
<path d="M166.22 214.633L157.08 214.758C157.08 214.758 144.656 210.619 143.03 209.527C141.404 208.435 130.886 213.868 129.592 214.441C128.744 214.844 127.955 215.368 127.248 215.998C126.645 216.593 125.964 217.098 125.226 217.499C124.291 217.93 122.771 220.486 122.771 220.486C122.771 220.486 118.758 221.469 120.252 222.67C121.746 223.871 126.667 223.172 128.542 222.555C130.416 221.938 133.917 222.484 133.917 222.484C133.917 222.484 139.107 230.439 152.793 227.469L166.394 228.747" fill="white"/>
<path d="M166.22 214.633L157.08 214.758C157.08 214.758 144.656 210.619 143.03 209.527C141.404 208.435 130.886 213.868 129.592 214.441C128.744 214.844 127.955 215.368 127.248 215.998C126.645 216.593 125.964 217.098 125.226 217.499C124.291 217.93 122.771 220.486 122.771 220.486C122.771 220.486 118.758 221.469 120.252 222.67C121.746 223.871 126.667 223.172 128.542 222.555C130.416 221.938 133.917 222.484 133.917 222.484C133.917 222.484 139.107 230.439 152.793 227.469L166.394 228.747" stroke="#263238" stroke-linecap="round" stroke-linejoin="round"/>
<path d="M122.776 220.486C122.776 220.486 126.245 219.121 127.924 218.356C129.603 217.592 134.344 217.062 134.344 217.062C134.344 217.062 133.816 214.66 136.018 213.786C138.22 212.913 138.574 211.247 138.574 211.247" stroke="#263238" stroke-linecap="round" stroke-linejoin="round"/>
<path d="M127.248 215.998C127.248 215.998 131.704 214.409 132.781 214.398" stroke="#263238" stroke-linecap="round" stroke-linejoin="round"/>
<path opacity="0.3" d="M178.807 208.9C179.166 208.918 179.521 208.983 179.863 209.095C179.937 209.123 180.013 209.145 180.09 209.161C179.651 209.148 179.218 209.06 178.807 208.9Z" fill="black" fill-opacity="0.7"/>
<path opacity="0.3" d="M205.693 202.686C205.693 202.686 193.871 206.868 185.724 208.517C191.073 207.098 198.665 204.089 205.693 202.681V202.686Z" fill="black" fill-opacity="0.7"/>
<path d="M208.27 202.238C197.266 203.784 183.908 210.488 179.858 209.091C175.808 207.693 166.209 213.835 166.209 213.835L160.56 213.912C160.56 213.912 156.383 223.489 158.891 230.423L164.736 231.018C164.736 231.018 164.303 234.84 179.641 235.877C194.98 236.915 223.434 238.105 228.978 227.775" fill="#20A4F3"/>
<mask id="mask5_2_8" style="mask-type:luminance" maskUnits="userSpaceOnUse" x="158" y="202" width="71" height="35">
<path d="M208.27 202.238C197.266 203.784 183.908 210.488 179.858 209.091C175.808 207.693 166.209 213.835 166.209 213.835L160.56 213.912C160.56 213.912 156.383 223.489 158.891 230.423L164.736 231.018C164.736 231.018 164.303 234.84 179.641 235.877C194.98 236.915 223.434 238.105 228.978 227.775" fill="white"/>
</mask>
<g mask="url(#mask5_2_8)">
<path opacity="0.3" d="M228.999 227.775C223.455 238.105 195.001 236.898 179.663 235.877C164.324 234.856 164.757 231.018 164.757 231.018L160.391 230.576C160.269 226.983 160.655 220.24 164.989 217.947C164.989 217.947 164.261 228.037 164.989 229.462C165.718 230.887 185.782 234.922 196.638 233.83C207.414 232.765 223.402 231.548 227.051 225.372L228.999 227.775Z" fill="black" fill-opacity="0.7"/>
</g>
<path d="M208.27 202.238C197.266 203.784 183.908 210.488 179.858 209.091C175.808 207.693 166.209 213.835 166.209 213.835L160.56 213.912C160.56 213.912 156.383 223.489 158.891 230.423L164.736 231.018C164.736 231.018 164.303 234.84 179.641 235.877C194.98 236.915 223.434 238.105 228.978 227.775" stroke="#263238" stroke-linecap="round" stroke-linejoin="round"/>
<path d="M186.838 208.277C187.139 208.113 189.943 200.923 192.878 200.278" stroke="#263238" stroke-linecap="round" stroke-linejoin="round"/>
<path d="M164.736 231.018C164.736 230.308 162.819 221.07 164.968 217.947" stroke="#263238" stroke-linecap="round" stroke-linejoin="round"/>
<path d="M175.887 178.722C175.887 178.722 178.57 171.078 185.724 170.314" stroke="#263238" stroke-linecap="round" stroke-linejoin="round"/>
<g opacity="0.4">
<path d="M188.786 189.637C189.024 190.554 188.496 191.646 190.08 192.192C193.776 192.738 195.36 195.468 197.472 198.198C198.575 198.675 199.571 199.383 200.397 200.278" stroke="#263238" stroke-linecap="round" stroke-linejoin="round"/>
<path d="M180.085 177.75C183.065 180.609 185.625 183.904 187.683 187.529" stroke="#263238" stroke-linecap="round" stroke-linejoin="round"/>
<path d="M173.559 216.625C172.329 217.035 171.109 217.472 169.9 217.947" stroke="#263238" stroke-linecap="round" stroke-linejoin="round"/>
<path d="M213.36 207.147C202.224 212.94 190.08 212.394 177.936 215.124C177.408 215.124 176.352 215.67 175.639 215.954" stroke="#263238" stroke-linecap="round" stroke-linejoin="round"/>
<path d="M186.838 172.421C191.664 174.72 195.36 179.088 199.056 182.91C202.752 187.824 205.92 193.284 211.728 196.014C213.312 197.106 214.896 198.744 214.896 201.474C215.424 202.566 217.536 203.658 215.53 205.842" stroke="#263238" stroke-linecap="round" stroke-linejoin="round"/>
<path d="M201.105 221.638C190.608 223.314 180.048 226.59 169.245 225.061" stroke="#263238" stroke-linecap="round" stroke-linejoin="round"/>
<path d="M225.044 208.517C226.692 216.757 216.279 218.345 210.741 219.618C208.164 220.204 205.579 220.75 202.984 221.256" stroke="#263238" stroke-linecap="round" stroke-linejoin="round"/>
<path d="M174.488 232.694C172.462 232.395 170.48 231.832 168.59 231.018" stroke="#263238" stroke-linecap="round" stroke-linejoin="round"/>
<path d="M230.335 219.814C230.208 224.952 225.456 227.682 221.76 228.774C206.976 234.234 191.664 233.688 176.479 232.984" stroke="#263238" stroke-linecap="round" stroke-linejoin="round"/>
<path d="M178.992 193.89C180.898 195.948 183.38 196.98 184.298 199.863C184.858 201.627 185.391 203.784 187.435 204.28" stroke="#263238" stroke-linecap="round" stroke-linejoin="round"/>
<path d="M174.356 185.815C175.149 188.088 176.247 190.235 177.619 192.192" stroke="#263238" stroke-linecap="round" stroke-linejoin="round"/>
</g>
<path d="M131.609 175.408C131.546 175.321 131.472 175.233 131.398 175.146C129.186 172.465 123.816 170.527 122.184 169.986L121.709 169.833C121.709 169.833 125.442 141.108 143.188 150.368C160.934 159.629 134.049 178.728 131.609 175.408Z" fill="white" stroke="#263238" stroke-linecap="round" stroke-linejoin="round"/>
<path d="M131.398 175.146C129.186 172.465 123.816 170.527 122.184 169.986C122.496 169.118 122.776 168.534 122.776 168.534L138.574 158.706C138.574 158.706 139.007 170.068 131.398 175.146Z" fill="#263238"/>
<path d="M144.931 140.868C144.508 116.178 128.309 98.553 107.02 111.242C89.6227 121.616 91.4866 141.332 101.075 151.455C106.746 157.461 102.21 163.139 111.107 170.898C114.122 173.53 121.788 176.462 124.455 175.572C133.843 172.427 141.536 161.682 140.158 157.281" fill="white"/>
<path d="M144.931 140.868C144.508 116.178 128.309 98.553 107.02 111.242C89.6227 121.616 91.4866 141.332 101.075 151.455C106.746 157.461 102.21 163.139 111.107 170.898C114.122 173.53 121.788 176.462 124.455 175.572C133.843 172.427 141.536 161.682 140.158 157.281" stroke="#263238" stroke-linecap="round" stroke-linejoin="round"/>
<path d="M109.629 144.532C109.629 144.532 113.193 139.803 120.189 140.994" stroke="#263238" stroke-linecap="round" stroke-linejoin="round"/>
<path d="M102.12 147.043C102.12 147.043 98.5512 145.744 98.2238 147.191" stroke="#263238" stroke-linecap="round" stroke-linejoin="round"/>
<path d="M118.95 148.283C119.35 147.983 119.28 147.181 118.795 146.492C118.31 145.803 117.593 145.488 117.193 145.789C116.794 146.09 116.864 146.892 117.349 147.581C117.834 148.27 118.551 148.584 118.95 148.283Z" fill="#263238"/>
<path d="M105.426 151.493C105.906 152.181 105.954 152.984 105.574 153.284C105.193 153.584 104.454 153.284 103.99 152.574C103.525 151.864 103.462 151.084 103.842 150.783C104.222 150.483 104.945 150.805 105.426 151.493Z" fill="#263238"/>
<path d="M105.764 150.368C107.443 151.821 109.502 153.994 107.633 158.149C105.764 162.304 110.373 162.784 112.876 161.021" fill="white"/>
<path d="M105.764 150.368C107.443 151.821 109.502 153.994 107.633 158.149C105.764 162.304 110.373 162.784 112.876 161.021" stroke="#263238" stroke-linecap="round" stroke-linejoin="round"/>
<path d="M114.576 160.284C114.576 160.284 116.202 158.733 113.573 157.09L114.576 160.284Z" fill="white"/>
<path d="M114.576 160.284C114.576 160.284 116.202 158.733 113.573 157.09" stroke="#263238" stroke-linecap="round" stroke-linejoin="round"/>
<path d="M113.235 165.536C113.715 166.361 116.165 165.301 116.883 165.138C117.502 164.703 118.144 164.304 118.805 163.942C119.513 163.598 121.614 162.479 121.709 161.212" fill="white"/>
<path d="M113.235 165.536C113.715 166.361 116.165 165.301 116.883 165.138C117.502 164.703 118.144 164.304 118.805 163.942C119.513 163.598 121.614 162.479 121.709 161.212" stroke="#263238" stroke-linecap="round" stroke-linejoin="round"/>
<path d="M114.914 167.032C117.121 169.255 120.949 166.825 121.709 163.516L114.914 167.032Z" fill="white"/>
<path d="M114.914 167.032C117.121 169.255 120.949 166.825 121.709 163.516" stroke="#263238" stroke-linecap="round" stroke-linejoin="round"/>
<path d="M115.965 104.532C100.653 107.469 92.3155 118.105 92.1413 127.644C92.1413 127.644 86.3333 138.886 90.8371 147.049C90.8371 147.049 91.0589 146.765 91.4232 146.383C91.2183 145.02 91.1106 143.644 91.1011 142.266C91.0961 140.885 91.227 139.508 91.4918 138.154C91.7797 136.809 92.2716 135.519 92.9491 134.332C92.3761 135.552 91.9896 136.856 91.8034 138.198C91.6512 139.534 91.6282 140.882 91.7347 142.222C91.8301 143.355 91.9977 144.481 92.2363 145.591C93.0758 144.87 94.1846 144.171 95.2195 144.286C95.6939 144.327 96.1707 144.327 96.6451 144.286C96.4286 143.194 96.2491 142.042 96.1171 140.912C95.988 139.602 95.9404 138.285 95.9746 136.97C96.0285 135.664 96.2143 134.369 96.529 133.104C96.3761 134.383 96.3496 135.674 96.4498 136.959C96.5741 138.232 96.7787 139.496 97.0622 140.742C97.3262 141.867 97.6413 142.976 98.0074 144.068C99.231 143.757 100.377 143.182 101.371 142.38C101.644 142.155 101.946 141.972 102.268 141.834C102.189 141.288 102.115 140.742 102.057 140.196C101.885 138.653 101.834 137.097 101.904 135.544C101.973 134.005 102.26 132.483 102.754 131.029C102.523 132.514 102.505 134.027 102.701 135.517C102.889 136.997 103.196 138.458 103.62 139.885C103.794 140.519 103.995 141.141 104.211 141.758C104.84 141.947 105.501 141.994 106.149 141.894C107.305 141.638 108.483 141.725 109.581 141.261C109.449 140.873 109.307 140.486 109.19 140.093C108.784 138.734 108.474 137.348 108.261 135.943C108.071 134.54 108.024 133.12 108.119 131.706C108.128 133.111 108.282 134.511 108.578 135.883C108.887 137.242 109.291 138.576 109.787 139.874C109.924 140.224 110.077 140.562 110.225 140.906C110.486 140.731 110.726 140.524 110.938 140.289C112.385 138.711 114.518 137.636 115.785 138.302C116.052 138.443 116.327 138.567 116.609 138.673C116.567 138.515 116.514 138.367 116.466 138.209C116.069 136.772 115.747 135.314 115.5 133.841C115.271 132.362 115.165 130.866 115.183 129.369C115.323 130.846 115.585 132.307 115.965 133.737C116.361 135.154 116.83 136.549 117.369 137.914C117.517 138.285 117.681 138.646 117.839 139.006C118.848 139.143 119.814 138.908 120.115 137.772C120.176 137.49 120.329 137.237 120.548 137.057C120.468 136.855 120.389 136.647 120.315 136.434C119.936 135.361 119.612 134.267 119.344 133.158C119.07 132.061 118.864 130.947 118.726 129.822C118.583 128.707 118.511 127.584 118.51 126.459C118.666 127.565 118.894 128.66 119.191 129.735C119.479 130.798 119.831 131.841 120.247 132.858C120.651 133.873 121.108 134.864 121.614 135.828C121.825 136.232 122.052 136.631 122.285 137.03C122.631 137.161 122.965 137.326 123.283 137.521C123.283 137.521 120.564 130.521 121.097 123.778C121.097 123.778 124.376 138.182 134.297 143.434L136.377 147.256C136.377 147.256 139.92 144.253 142.713 146.967C145.506 149.68 146.494 147.835 146.494 147.835C146.494 147.835 150.887 138.968 145.617 122.135C140.348 105.302 128.177 102.189 115.965 104.532Z" fill="#263238"/>
<path d="M140.881 151.864C140.881 151.864 140.68 153.306 142.344 153.421C144.007 153.535 145.416 149.959 146.245 143.44C147.132 136.511 145.079 132.35 141.097 132.312C137.116 132.274 136.029 136.642 135.696 139.164C135.414 141.307 135.5 143.484 135.949 145.596" fill="white"/>
<path d="M140.881 151.864C140.881 151.864 140.68 153.306 142.344 153.421C144.007 153.535 145.416 149.959 146.245 143.44C147.132 136.511 145.079 132.35 141.097 132.312C137.116 132.274 136.029 136.642 135.696 139.164C135.414 141.307 135.5 143.484 135.949 145.596" stroke="#263238" stroke-linecap="round" stroke-linejoin="round"/>
<path d="M143.679 150.953C143.679 151.14 143.625 151.324 143.525 151.48C143.424 151.637 143.28 151.758 143.112 151.83C142.944 151.902 142.76 151.921 142.581 151.884C142.403 151.848 142.239 151.757 142.111 151.624C141.983 151.492 141.895 151.322 141.86 151.138C141.824 150.954 141.842 150.763 141.912 150.589C141.981 150.415 142.099 150.267 142.25 150.163C142.401 150.058 142.579 150.003 142.761 150.003C143.004 150.003 143.238 150.103 143.41 150.281C143.583 150.459 143.679 150.701 143.679 150.953Z" fill="#20A4F3" stroke="#263238" stroke-linecap="round" stroke-linejoin="round"/>
<path d="M119.671 162.162C119.671 162.162 117.253 162.79 116.646 163.003C116.138 163.285 115.702 163.687 115.373 164.177C115.373 164.177 113.89 164.215 113.562 164.876" fill="white"/>
<path d="M119.671 162.162C119.671 162.162 117.253 162.79 116.646 163.003C116.138 163.285 115.702 163.687 115.373 164.177C115.373 164.177 113.89 164.215 113.562 164.876" stroke="#263238" stroke-linecap="round" stroke-linejoin="round"/>
<g opacity="0.2">
<path d="M113.562 119.028C113.562 119.028 110.595 125.4 111.873 134.578" stroke="white" stroke-linecap="round" stroke-linejoin="round"/>
<path d="M107.976 119.028C107.976 119.028 101.772 127.3 105.336 139.093" stroke="white" stroke-linecap="round" stroke-linejoin="round"/>
<path d="M98.208 140.802C98.3083 140.256 95.1773 127.851 100.711 121.376" stroke="white" stroke-linecap="round" stroke-linejoin="round"/>
<path d="M90.1771 139.066C90.1771 139.066 91.7294 127 97.4318 122.686" stroke="white" stroke-linecap="round" stroke-linejoin="round"/>
<path d="M122.184 119.028C122.184 119.028 128.938 130.772 137.808 130.123" stroke="white" stroke-linecap="round" stroke-linejoin="round"/>
<path d="M125.384 115.359C125.384 115.359 133.832 123.21 140.992 121.365" stroke="white" stroke-linecap="round" stroke-linejoin="round"/>
</g>
</svg>
